# xmcd CD database file generated by Grip 3.0.7
# 
# Track frame offsets:
#       150
#       20307
#       49002
#       81155
#       103820
#       119535
#       165352
#       199667
#       225872
#       252962
#       269702
# 
# Disc length: 3917 seconds
# 
# Revision: 1
# Processed by: cddbd v1.5.1PL0 Copyright (c) Steve Scherf et al.
# Submitted via: Grip 3.0.7
# 
DISCID=890f4b0b
DTITLE=Omar Sosa - Bembon
DYEAR=2000
DGENRE=Jazz
TTITLE0=Negros
TTITLE1=Para Dos Parados
TTITLE2=Lapiz En Pigalle
TTITLE3=Marimchacha
TTITLE4=Juntos
TTITLE5=Dame Un Tiempo
TTITLE6=Campos Verdes
TTITLE7=Narcisa Con Yalode
TTITLE8=Gracias Senor
TTITLE9=Bembon
TTITLE10=Torbelegg
EXTD=YEAR: 2000
EXTT0=
EXTT1=
EXTT2=
EXTT3=
EXTT4=
EXTT5=
EXTT6=
EXTT7=
EXTT8=
EXTT9=
EXTT10=
PLAYORDER=
